# xmcd
#
# Track frame offsets:
#	150
#	12086
#	29057
#	45977
#	67866
#	83044
#	99858
#	115236
#	132536
#	150263
#	168478
#	188725
#
# Disc length: 2731
#
# Revision: 2
# Processed by: cddbd v1.5.1PL0 Copyright (c) Steve Scherf et al.
# Submitted via: VisiTrax 2.9.9.202 - For more info visit www.synapsa.com
# Normalized: r1:DSETVAR1
#
DISCID=890aa90c
DTITLE=Various Artist - Today's Country Hits - Disc 5
DYEAR=2002
DGENRE=Country
TTITLE0=Alan Jackson - www.memory.com
TTITLE1=Carolyn Dawn Johnson - I Don't Want To Go
TTITLE2=Dixie Chicks - Wide Open Spaces
TTITLE3=Garth Brooks - The Thunder Rolls
TTITLE4=George Straight - The Best Day Of My Life
TTITLE5=Jo Dee Mesina - Stand Beside Me
TTITLE6=Kenny Chesney - Don't Happen Twice
TTITLE7=Kenny Rodgers - Buy Me A Rose
TTITLE8=Kevin Denney - That's Just Jesse
TTITLE9=Lonestar - Amazed
TTITLE10=Steve Warner - Holes In The Floor Of Heaven
TTITLE11=Tracy Bird - I'm From The Country
EXTD=
EXTT0=
EXTT1=
EXTT2=
EXTT3=
EXTT4=
EXTT5=
EXTT6=
EXTT7=
EXTT8=
EXTT9=
EXTT10=
EXTT11=
PLAYORDER=
